<svg width="533.060498046875px" height="135.2px" xmlns="http://www.w3.org/2000/svg" viewBox="-16.530249023437477 7.400000000000006 533.060498046875 135.2" style="background: rgba(0, 0, 0, 0);" preserveAspectRatio="xMidYMid"><defs><filter id="editing-metal-beveled"><feGaussianBlur stdDeviation="4" in="SourceAlpha" result="blur"></feGaussianBlur><feSpecularLighting surfaceScale="5" specularConstant="0.8" specularExponent="7.5" lighting-color="#ffffff" in="blur" result="specular"><fePointLight x="-250" y="-50" z="300"></fePointLight></feSpecularLighting><feComposite operator="in" in="specular" in2="SourceAlpha" result="comp"></feComposite><feComposite in="SourceGraphic" in2="comp" operator="arithmetic" k1="0" k2="1" k3="1" k4="0"></feComposite></filter></defs><g filter="url(#editing-metal-beveled)"><g transform="translate(63.26996374130249, 104.75000381469727)"><path d="M14.91 0.06L14.91 0.06L14.91 0.06Q9.03 0.06 5.92-3.02L5.92-3.02L5.92-3.02Q2.81-6.09 2.81-12.53L2.81-12.53L2.81-12.53Q2.81-15 3.53-17.63L3.53-17.63L3.53-17.63Q4.25-20.25 5.53-22.83L5.53-22.83L5.53-22.83Q6.81-25.41 8.58-27.86L8.58-27.86L8.58-27.86Q10.34-30.31 12.45-32.52L12.45-32.52L12.45-32.52Q14.56-34.72 16.92-36.56L16.92-36.56L16.92-36.56Q19.28-38.41 21.77-39.73L21.77-39.73L21.77-39.73Q24.25-41.06 26.77-41.81L26.77-41.81L26.77-41.81Q29.28-42.56 31.69-42.56L31.69-42.56L31.69-42.56Q33.38-42.56 34.75-42.13L34.75-42.13L34.75-42.13Q36.13-41.69 37.11-40.88L37.11-40.88L37.11-40.88Q38.09-40.06 38.63-38.86L38.63-38.86L38.63-38.86Q39.16-37.66 39.16-36.16L39.16-36.16L39.16-36.16Q39.16-34.66 38.63-33.13L38.63-33.13L38.63-33.13Q38.09-31.59 37.17-30.14L37.17-30.14L37.17-30.14Q36.25-28.69 34.98-27.41L34.98-27.41L34.98-27.41Q33.72-26.13 32.25-25.17L32.25-25.17L32.25-25.17Q30.78-24.22 29.14-23.66L29.14-23.66L29.14-23.66Q27.50-23.09 25.84-23.09L25.84-23.09L25.84-23.09Q22.91-23.09 21.25-24.59L21.25-24.59L21.25-24.59Q19.59-26.09 19.59-28.59L19.59-28.59L19.59-28.59Q19.59-29.81 19.88-30.70L19.88-30.70L19.88-30.70Q20.16-31.59 20.52-32.22L20.52-32.22L20.52-32.22Q20.88-32.84 21.23-33.22L21.23-33.22L21.23-33.22Q21.59-33.59 21.75-33.84L21.75-33.84L22.59-32.97L22.59-32.97Q22.56-32.94 22.28-32.69L22.28-32.69L22.28-32.69Q22-32.44 21.67-31.91L21.67-31.91L21.67-31.91Q21.34-31.38 21.08-30.55L21.08-30.55L21.08-30.55Q20.81-29.72 20.81-28.59L20.81-28.59L20.81-28.59Q20.81-27.75 21.11-26.98L21.11-26.98L21.11-26.98Q21.41-26.22 22.03-25.64L22.03-25.64L22.03-25.64Q22.66-25.06 23.61-24.72L23.61-24.72L23.61-24.72Q24.56-24.38 25.84-24.38L25.84-24.38L25.84-24.38Q28.13-24.38 30.30-25.45L30.30-25.45L30.30-25.45Q32.47-26.53 34.17-28.25L34.17-28.25L34.17-28.25Q35.88-29.97 36.91-32.08L36.91-32.08L36.91-32.08Q37.94-34.19 37.94-36.22L37.94-36.22L37.94-36.22Q37.94-38.75 36.33-40.02L36.33-40.02L36.33-40.02Q34.72-41.28 31.63-41.28L31.63-41.28L31.63-41.28Q28.16-41.28 24.97-40.03L24.97-40.03L24.97-40.03Q21.78-38.78 19.02-36.63L19.02-36.63L19.02-36.63Q16.25-34.47 13.98-31.63L13.98-31.63L13.98-31.63Q11.72-28.78 10.11-25.61L10.11-25.61L10.11-25.61Q8.50-22.44 7.61-19.11L7.61-19.11L7.61-19.11Q6.72-15.78 6.72-12.69L6.72-12.69L6.72-12.69Q6.72-9.69 7.56-7.63L7.56-7.63L7.56-7.63Q8.41-5.56 9.83-4.30L9.83-4.30L9.83-4.30Q11.25-3.03 13.13-2.47L13.13-2.47L13.13-2.47Q15-1.91 17.09-1.91L17.09-1.91L17.09-1.91Q18.78-1.91 20.59-2.44L20.59-2.44L20.59-2.44Q22.41-2.97 24.20-3.92L24.20-3.92L24.20-3.92Q26-4.88 27.69-6.19L27.69-6.19L27.69-6.19Q29.38-7.50 30.84-9.03L30.84-9.03L30.84-9.03Q30.91-12.63 31.45-15.20L31.45-15.20L31.45-15.20Q32-17.78 32.78-19.42L32.78-19.42L32.78-19.42Q33.56-21.06 34.45-21.83L34.45-21.83L34.45-21.83Q35.34-22.59 36.09-22.59L36.09-22.59L36.09-22.59Q36.31-22.59 36.59-22.52L36.59-22.52L36.59-22.52Q36.88-22.44 37.14-22.22L37.14-22.22L37.14-22.22Q37.41-22 37.58-21.61L37.58-21.61L37.58-21.61Q37.75-21.22 37.75-20.59L37.75-20.59L37.75-20.59Q37.75-19.41 37.38-18.05L37.38-18.05L37.38-18.05Q37-16.69 36.31-15.23L36.31-15.23L36.31-15.23Q35.63-13.78 34.64-12.28L34.64-12.28L34.64-12.28Q33.66-10.78 32.44-9.34L32.44-9.34L32.44-9.34Q32.56-7.50 32.81-5.94L32.81-5.94L32.81-5.94Q33.06-4.38 33.30-2.97L33.30-2.97L33.30-2.97Q33.53-1.56 33.72-0.23L33.72-0.23L33.72-0.23Q33.91 1.09 33.91 2.44L33.91 2.44L33.91 2.44Q33.91 4.94 33.27 7.41L33.27 7.41L33.27 7.41Q32.63 9.88 31.06 11.84L31.06 11.84L31.06 11.84Q29.50 13.81 26.86 15.03L26.86 15.03L26.86 15.03Q24.22 16.25 20.22 16.25L20.22 16.25L20.22 16.25Q18.47 16.25 17.16 15.70L17.16 15.70L17.16 15.70Q15.84 15.16 14.95 14.28L14.95 14.28L14.95 14.28Q14.06 13.41 13.63 12.30L13.63 12.30L13.63 12.30Q13.19 11.19 13.19 10.06L13.19 10.06L13.19 10.06Q13.19 8.97 13.45 7.92L13.45 7.92L13.45 7.92Q13.72 6.88 14.38 6.03L14.38 6.03L14.38 6.03Q15.03 5.19 16.11 4.63L16.11 4.63L16.11 4.63Q17.19 4.06 18.81 3.97L18.81 3.97L18.94 5.19L18.94 5.19Q17.66 5.25 16.80 5.66L16.80 5.66L16.80 5.66Q15.94 6.06 15.41 6.73L15.41 6.73L15.41 6.73Q14.88 7.41 14.64 8.27L14.64 8.27L14.64 8.27Q14.41 9.13 14.41 10.06L14.41 10.06L14.41 10.06Q14.41 10.69 14.66 11.55L14.66 11.55L14.66 11.55Q14.91 12.41 15.55 13.17L15.55 13.17L15.55 13.17Q16.19 13.94 17.30 14.48L17.30 14.48L17.30 14.48Q18.41 15.03 20.16 15.03L20.16 15.03L20.16 15.03Q22.41 15.03 24.08 14.30L24.08 14.30L24.08 14.30Q25.75 13.56 26.95 12.28L26.95 12.28L26.95 12.28Q28.16 11 28.94 9.27L28.94 9.27L28.94 9.27Q29.72 7.53 30.17 5.53L30.17 5.53L30.17 5.53Q30.63 3.53 30.80 1.34L30.80 1.34L30.80 1.34Q30.97-0.84 30.97-3L30.97-3L30.97-3Q30.97-4.06 30.91-5.17L30.91-5.17L30.91-5.17Q30.84-6.28 30.84-7.50L30.84-7.50L30.84-7.50Q29.25-5.91 27.42-4.53L27.42-4.53L27.42-4.53Q25.59-3.16 23.56-2.13L23.56-2.13L23.56-2.13Q21.53-1.09 19.34-0.52L19.34-0.52L19.34-0.52Q17.16 0.06 14.91 0.06ZM32.38-11.84L32.38-10.81L32.38-10.81Q34.25-13.13 35.39-15.66L35.39-15.66L35.39-15.66Q36.53-18.19 36.53-20.59L36.53-20.59L36.53-20.59Q36.53-21.31 36.09-21.31L36.09-21.31L36.09-21.31Q35.63-21.31 34.98-20.48L34.98-20.48L34.98-20.48Q34.34-19.66 33.77-18.31L33.77-18.31L33.77-18.31Q33.19-16.97 32.78-15.27L32.78-15.27L32.78-15.27Q32.38-13.56 32.38-11.84L32.38-11.84ZM47.31-3.25L47.31-3.25L47.31-3.25Q45.34-3.25 44.05-4.84L44.05-4.84L44.05-4.84Q42.75-6.44 42.75-9.66L42.75-9.66L42.75-9.66Q42.75-11.78 43.61-15.08L43.61-15.08L43.61-15.08Q44.47-18.38 46.59-22.53L46.59-22.53L47.75-22.22L47.75-22.22Q47.56-21.41 47.14-20L47.14-20L47.14-20Q46.72-18.59 46.30-16.86L46.30-16.86L46.30-16.86Q45.88-15.13 45.56-13.23L45.56-13.23L45.56-13.23Q45.25-11.34 45.25-9.59L45.25-9.59L45.25-9.59Q45.25-8.13 45.47-7.20L45.47-7.20L45.47-7.20Q45.69-6.28 46.05-5.77L46.05-5.77L46.05-5.77Q46.41-5.25 46.89-5.06L46.89-5.06L46.89-5.06Q47.38-4.88 47.94-4.88L47.94-4.88L47.94-4.88Q48.84-4.88 49.66-5.44L49.66-5.44L49.66-5.44Q50.47-6 51.20-6.92L51.20-6.92L51.20-6.92Q51.94-7.84 52.58-8.98L52.58-8.98L52.58-8.98Q53.22-10.13 53.73-11.28L53.73-11.28L53.73-11.28Q54.25-12.44 54.66-13.48L54.66-13.48L54.66-13.48Q55.06-14.53 55.31-15.28L55.31-15.28L56.53-14.97L56.53-14.97Q56.19-14.03 55.73-12.80L55.73-12.80L55.73-12.80Q55.28-11.56 54.70-10.25L54.70-10.25L54.70-10.25Q54.13-8.94 53.41-7.69L53.41-7.69L53.41-7.69Q52.69-6.44 51.78-5.45L51.78-5.45L51.78-5.45Q50.88-4.47 49.77-3.86L49.77-3.86L49.77-3.86Q48.66-3.25 47.31-3.25ZM52.38-32.38L52.38-32.38L52.38-32.38Q52.38-31.28 51.53-30.69L51.53-30.69L51.53-30.69Q50.69-30.09 49.41-30.09L49.41-30.09L49.41-30.09Q48.75-30.09 48.17-30.30L48.17-30.30L48.17-30.30Q47.59-30.50 47.17-30.83L47.17-30.83L47.17-30.83Q46.75-31.16 46.52-31.61L46.52-31.61L46.52-31.61Q46.28-32.06 46.28-32.56L46.28-32.56L46.28-32.56Q46.28-33.63 47.11-34.28L47.11-34.28L47.11-34.28Q47.94-34.94 49.03-34.94L49.03-34.94L49.03-34.94Q49.81-34.94 50.44-34.70L50.44-34.70L50.44-34.70Q51.06-34.47 51.50-34.09L51.50-34.09L51.50-34.09Q51.94-33.72 52.16-33.27L52.16-33.27L52.16-33.27Q52.38-32.81 52.38-32.38ZM50.69-32.38L50.69-32.38L50.69-32.38Q50.69-32.69 50.42-32.95L50.42-32.95L50.42-32.95Q50.16-33.22 49.63-33.22L49.63-33.22L49.63-33.22Q48.66-33.22 48.66-32.50L48.66-32.50L48.66-32.50Q48.66-32.16 48.95-31.92L48.95-31.92L48.95-31.92Q49.25-31.69 49.75-31.69L49.75-31.69L49.75-31.69Q50.22-31.69 50.45-31.89L50.45-31.89L50.45-31.89Q50.69-32.09 50.69-32.38ZM78.16-15.28L79.38-14.97L79.38-14.97Q78.09-11.50 77.05-9.16L77.05-9.16L77.05-9.16Q76-6.81 75.02-5.38L75.02-5.38L75.02-5.38Q74.03-3.94 73.06-3.31L73.06-3.31L73.06-3.31Q72.09-2.69 70.94-2.69L70.94-2.69L70.94-2.69Q69.53-2.69 68.53-3.67L68.53-3.67L68.53-3.67Q67.53-4.66 67.28-6.72L67.28-6.72L67.28-6.72Q66.28-4.56 64.69-3.20L64.69-3.20L64.69-3.20Q63.09-1.84 60.69-1.84L60.69-1.84L60.69-1.84Q59.41-1.84 58.23-2.31L58.23-2.31L58.23-2.31Q57.06-2.78 56.16-3.77L56.16-3.77L56.16-3.77Q55.25-4.75 54.70-6.25L54.70-6.25L54.70-6.25Q54.16-7.75 54.16-9.78L54.16-9.78L54.16-9.78Q54.16-11.84 54.67-13.66L54.67-13.66L54.67-13.66Q55.19-15.47 56.03-16.98L56.03-16.98L56.03-16.98Q56.88-18.50 57.98-19.69L57.98-19.69L57.98-19.69Q59.09-20.88 60.28-21.69L60.28-21.69L60.28-21.69Q61.47-22.50 62.66-22.94L62.66-22.94L62.66-22.94Q63.84-23.38 64.84-23.38L64.84-23.38L64.84-23.38Q65.72-23.38 66.53-23.16L66.53-23.16L66.53-23.16Q67.34-22.94 67.98-22.45L67.98-22.45L67.98-22.45Q68.63-21.97 69.02-21.16L69.02-21.16L69.02-21.16Q69.41-20.34 69.41-19.13L69.41-19.13L69.41-19.13Q69.41-17.69 68.86-16.63L68.86-16.63L68.86-16.63Q68.31-15.56 67.55-14.84L67.55-14.84L67.55-14.84Q66.78-14.13 65.98-13.69L65.98-13.69L65.98-13.69Q65.19-13.25 64.72-13.06L64.72-13.06L64.34-14.28L64.34-14.28Q64.44-14.28 65.05-14.53L65.05-14.53L65.05-14.53Q65.66-14.78 66.33-15.36L66.33-15.36L66.33-15.36Q67-15.94 67.56-16.84L67.56-16.84L67.56-16.84Q68.13-17.75 68.13-19.06L68.13-19.06L68.13-19.06Q68.13-20.56 67.28-21.36L67.28-21.36L67.28-21.36Q66.44-22.16 65.13-22.16L65.13-22.16L65.13-22.16Q64.13-22.16 62.78-21.44L62.78-21.44L62.78-21.44Q61.44-20.72 60.20-19.19L60.20-19.19L60.20-19.19Q58.97-17.66 58.11-15.31L58.11-15.31L58.11-15.31Q57.25-12.97 57.25-9.72L57.25-9.72L57.25-9.72Q57.25-6.50 58.39-4.81L58.39-4.81L58.39-4.81Q59.53-3.13 61.47-3.13L61.47-3.13L61.47-3.13Q62.44-3.13 63.33-3.67L63.33-3.67L63.33-3.67Q64.22-4.22 64.97-5.13L64.97-5.13L64.97-5.13Q65.72-6.03 66.31-7.23L66.31-7.23L66.31-7.23Q66.91-8.44 67.34-9.72L67.34-9.72L67.34-9.72Q67.34-10.72 67.58-12.08L67.58-12.08L67.58-12.08Q67.81-13.44 68.31-14.84L68.31-14.84L70.22-14.22L70.22-14.22Q70.06-13.81 69.91-13.16L69.91-13.16L69.91-13.16Q69.75-12.50 69.61-11.72L69.61-11.72L69.61-11.72Q69.47-10.94 69.38-10.11L69.38-10.11L69.38-10.11Q69.28-9.28 69.28-8.50L69.28-8.50L69.28-8.50Q69.28-6.06 69.77-5.14L69.77-5.14L69.77-5.14Q70.25-4.22 71.44-4.22L71.44-4.22L71.44-4.22Q72.13-4.22 72.80-4.72L72.80-4.72L72.80-4.72Q73.47-5.22 74.25-6.47L74.25-6.47L74.25-6.47Q75.03-7.72 75.97-9.86L75.97-9.86L75.97-9.86Q76.91-12 78.16-15.28L78.16-15.28ZM79.38-14.97L78.16-15.28L78.16-15.28Q78.63-16.50 79.17-17.61L79.17-17.61L79.17-17.61Q79.72-18.72 80.34-19.56L80.34-19.56L80.34-19.56Q80.97-20.41 81.70-20.92L81.70-20.92L81.70-20.92Q82.44-21.44 83.34-21.44L83.34-21.44L83.34-21.44Q83.78-21.44 84.34-21.25L84.34-21.25L84.34-21.25Q84.91-21.06 85.42-20.50L85.42-20.50L85.42-20.50Q85.94-19.94 86.28-18.88L86.28-18.88L86.28-18.88Q86.63-17.81 86.63-16.06L86.63-16.06L86.63-16.06Q86.63-15.16 86.53-14.06L86.53-14.06L86.53-14.06Q86.44-12.97 86.34-11.91L86.34-11.91L86.34-11.91Q87.31-13.97 88.27-15.39L88.27-15.39L88.27-15.39Q89.22-16.81 90.14-17.67L90.14-17.67L90.14-17.67Q91.06-18.53 91.97-18.92L91.97-18.92L91.97-18.92Q92.88-19.31 93.78-19.31L93.78-19.31L93.78-19.31Q94.19-19.31 94.73-19.13L94.73-19.13L94.73-19.13Q95.28-18.94 95.77-18.47L95.77-18.47L95.77-18.47Q96.25-18 96.58-17.19L96.58-17.19L96.58-17.19Q96.91-16.38 96.91-15.09L96.91-15.09L96.91-15.09Q96.91-14.06 96.75-13.03L96.75-13.03L96.75-13.03Q96.59-12 96.41-11.03L96.41-11.03L96.41-11.03Q96.22-10.06 96.06-9.20L96.06-9.20L96.06-9.20Q95.91-8.34 95.91-7.69L95.91-7.69L95.91-7.69Q95.91-6.13 96.47-5.30L96.47-5.30L96.47-5.30Q97.03-4.47 98.19-4.47L98.19-4.47L98.19-4.47Q99.13-4.47 99.97-5.17L99.97-5.17L99.97-5.17Q100.81-5.88 101.55-6.97L101.55-6.97L101.55-6.97Q102.28-8.06 102.89-9.38L102.89-9.38L102.89-9.38Q103.50-10.69 103.95-11.89L103.95-11.89L103.95-11.89Q104.41-13.09 104.72-14.02L104.72-14.02L104.72-14.02Q105.03-14.94 105.16-15.28L105.16-15.28L106.38-14.97L106.38-14.97Q105.94-13.88 105.45-12.55L105.45-12.55L105.45-12.55Q104.97-11.22 104.38-9.88L104.38-9.88L104.38-9.88Q103.78-8.53 103.09-7.27L103.09-7.27L103.09-7.27Q102.41-6 101.56-5.03L101.56-5.03L101.56-5.03Q100.72-4.06 99.73-3.47L99.73-3.47L99.73-3.47Q98.75-2.88 97.56-2.88L97.56-2.88L97.56-2.88Q96.56-2.88 95.83-3.27L95.83-3.27L95.83-3.27Q95.09-3.66 94.59-4.31L94.59-4.31L94.59-4.31Q94.09-4.97 93.84-5.88L93.84-5.88L93.84-5.88Q93.59-6.78 93.59-7.81L93.59-7.81L93.59-7.81Q93.59-8.97 93.80-10.19L93.80-10.19L93.80-10.19Q94-11.41 94.23-12.53L94.23-12.53L94.23-12.53Q94.47-13.66 94.67-14.61L94.67-14.61L94.67-14.61Q94.88-15.56 94.88-16.19L94.88-16.19L94.88-16.19Q94.88-17.16 94.50-17.64L94.50-17.64L94.50-17.64Q94.13-18.13 93.47-18.13L93.47-18.13L93.47-18.13Q92.56-18.13 91.70-17.47L91.70-17.47L91.70-17.47Q90.84-16.81 90.05-15.72L90.05-15.72L90.05-15.72Q89.25-14.63 88.53-13.22L88.53-13.22L88.53-13.22Q87.81-11.81 87.20-10.33L87.20-10.33L87.20-10.33Q86.59-8.84 86.08-7.38L86.08-7.38L86.08-7.38Q85.56-5.91 85.19-4.72L85.19-4.72L85.19-4.72Q84.81-3.53 84.55-2.70L84.55-2.70L84.55-2.70Q84.28-1.88 84.19-1.66L84.19-1.66L82.38-1.97L82.38-1.97Q82.75-3.81 83.06-5.86L83.06-5.86L83.06-5.86Q83.38-7.91 83.61-9.89L83.61-9.89L83.61-9.89Q83.84-11.88 83.98-13.69L83.98-13.69L83.98-13.69Q84.13-15.50 84.13-16.91L84.13-16.91L84.13-16.91Q84.13-18.81 83.88-19.48L83.88-19.48L83.88-19.48Q83.63-20.16 82.97-20.16L82.97-20.16L82.97-20.16Q82.41-20.16 81.91-19.73L81.91-19.73L81.91-19.73Q81.41-19.31 80.98-18.61L80.98-18.61L80.98-18.61Q80.56-17.91 80.16-16.97L80.16-16.97L80.16-16.97Q79.75-16.03 79.38-14.97L79.38-14.97ZM115.97-39.38L115.97-39.38L115.97-39.38Q115.97-37.41 115.52-35.19L115.52-35.19L115.52-35.19Q115.06-32.97 114.33-30.69L114.33-30.69L114.33-30.69Q113.59-28.41 112.64-26.09L112.64-26.09L112.64-26.09Q111.69-23.78 110.72-21.66L110.72-21.66L110.72-21.66Q109.75-19.53 108.81-17.63L108.81-17.63L108.81-17.63Q107.88-15.72 107.16-14.22L107.16-14.22L107.16-14.22Q107.28-11.66 107.59-9.59L107.59-9.59L107.59-9.59Q107.91-7.53 108.38-6.08L108.38-6.08L108.38-6.08Q108.84-4.63 109.50-3.84L109.50-3.84L109.50-3.84Q110.16-3.06 111-3.06L111-3.06L111-3.06Q111.94-3.06 112.86-3.94L112.86-3.94L112.86-3.94Q113.78-4.81 114.72-6.41L114.72-6.41L114.72-6.41Q115.66-8 116.63-10.25L116.63-10.25L116.63-10.25Q117.59-12.50 118.59-15.28L118.59-15.28L119.81-14.97L119.81-14.97Q119.06-12.81 118.13-10.42L118.13-10.42L118.13-10.42Q117.19-8.03 116.03-6.03L116.03-6.03L116.03-6.03Q114.88-4.03 113.52-2.72L113.52-2.72L113.52-2.72Q112.16-1.41 110.59-1.41L110.59-1.41L110.59-1.41Q109.03-1.41 107.97-2.38L107.97-2.38L107.97-2.38Q106.91-3.34 106.22-4.92L106.22-4.92L106.22-4.92Q105.53-6.50 105.16-8.52L105.16-8.52L105.16-8.52Q104.78-10.53 104.59-12.63L104.59-12.63L104.59-12.63Q104.41-14.72 104.38-16.70L104.38-16.70L104.38-16.70Q104.34-18.69 104.34-20.22L104.34-20.22L104.34-20.22Q104.34-23.06 104.58-25.88L104.58-25.88L104.58-25.88Q104.81-28.69 105.30-31.25L105.30-31.25L105.30-31.25Q105.78-33.81 106.47-36.02L106.47-36.02L106.47-36.02Q107.16-38.22 108.08-39.83L108.08-39.83L108.08-39.83Q109-41.44 110.11-42.34L110.11-42.34L110.11-42.34Q111.22-43.25 112.53-43.25L112.53-43.25L112.53-43.25Q113.47-43.25 114.13-42.94L114.13-42.94L114.13-42.94Q114.78-42.63 115.19-42.09L115.19-42.09L115.19-42.09Q115.59-41.56 115.78-40.86L115.78-40.86L115.78-40.86Q115.97-40.16 115.97-39.38ZM106.97-21.38L106.97-21.38L106.97-21.38Q106.97-20.19 106.97-19.05L106.97-19.05L106.97-19.05Q106.97-17.91 107.03-16.84L107.03-16.84L107.03-16.84Q107.81-18.41 108.69-20.27L108.69-20.27L108.69-20.27Q109.56-22.13 110.42-24.11L110.42-24.11L110.42-24.11Q111.28-26.09 112.06-28.13L112.06-28.13L112.06-28.13Q112.84-30.16 113.44-32.11L113.44-32.11L113.44-32.11Q114.03-34.06 114.39-35.83L114.39-35.83L114.39-35.83Q114.75-37.59 114.75-39.03L114.75-39.03L114.75-39.03Q114.75-39.50 114.67-40.03L114.67-40.03L114.67-40.03Q114.59-40.56 114.39-41.02L114.39-41.02L114.39-41.02Q114.19-41.47 113.81-41.77L113.81-41.77L113.81-41.77Q113.44-42.06 112.84-42.06L112.84-42.06L112.84-42.06Q111.66-42.06 110.58-40.52L110.58-40.52L110.58-40.52Q109.50-38.97 108.70-36.22L108.70-36.22L108.70-36.22Q107.91-33.47 107.44-29.67L107.44-29.67L107.44-29.67Q106.97-25.88 106.97-21.38ZM130.56-7.22L130.56-7.22L130.56-7.22Q129.59-5.47 128.69-4.31L128.69-4.31L128.69-4.31Q127.78-3.16 126.89-2.47L126.89-2.47L126.89-2.47Q126-1.78 125.09-1.50L125.09-1.50L125.09-1.50Q124.19-1.22 123.22-1.22L123.22-1.22L123.22-1.22Q122.44-1.22 121.44-1.47L121.44-1.47L121.44-1.47Q120.44-1.72 119.55-2.52L119.55-2.52L119.55-2.52Q118.66-3.31 118.05-4.81L118.05-4.81L118.05-4.81Q117.44-6.31 117.44-8.84L117.44-8.84L117.44-8.84Q117.44-11.38 118.03-13.61L118.03-13.61L118.03-13.61Q118.63-15.84 119.34-17.53L119.34-17.53L119.34-17.53Q120.19-19.47 121.28-21.13L121.28-21.13L122.44-20.75L122.44-20.75Q122.41-20.72 122.23-20.19L122.23-20.19L122.23-20.19Q122.06-19.66 121.80-18.75L121.80-18.75L121.80-18.75Q121.53-17.84 121.23-16.66L121.23-16.66L121.23-16.66Q120.94-15.47 120.67-14.14L120.67-14.14L120.67-14.14Q120.41-12.81 120.23-11.44L120.23-11.44L120.23-11.44Q120.06-10.06 120.06-8.78L120.06-8.78L120.06-8.78Q120.06-5.84 121.11-4.14L121.11-4.14L121.11-4.14Q122.16-2.44 123.84-2.44L123.84-2.44L123.84-2.44Q125.72-2.44 127.47-4.61L127.47-4.61L127.47-4.61Q129.22-6.78 130.81-10.69L130.81-10.69L130.81-10.69Q131.09-12.50 131.58-14.06L131.58-14.06L131.58-14.06Q132.06-15.63 132.55-16.84L132.55-16.84L132.55-16.84Q133.03-18.06 133.44-18.88L133.44-18.88L133.44-18.88Q133.84-19.69 134.03-19.97L134.03-19.97L135.13-19.72L135.13-19.72Q134.63-17.38 134.27-15.52L134.27-15.52L134.27-15.52Q133.91-13.66 133.69-12.16L133.69-12.16L133.69-12.16Q133.47-10.66 133.36-9.48L133.36-9.48L133.36-9.48Q133.25-8.31 133.25-7.38L133.25-7.38L133.25-7.38Q133.25-5.50 133.84-4.38L133.84-4.38L133.84-4.38Q134.44-3.25 135.69-3.25L135.69-3.25L135.69-3.25Q136.53-3.25 137.31-3.88L137.31-3.88L137.31-3.88Q138.09-4.50 138.94-5.94L138.94-5.94L138.94-5.94Q139.78-7.38 140.72-9.66L140.72-9.66L140.72-9.66Q141.66-11.94 142.84-15.28L142.84-15.28L144.06-14.97L144.06-14.97Q143.53-13.66 143-12.16L143-12.16L143-12.16Q142.47-10.66 141.86-9.16L141.86-9.16L141.86-9.16Q141.25-7.66 140.58-6.28L140.58-6.28L140.58-6.28Q139.91-4.91 139.08-3.84L139.08-3.84L139.08-3.84Q138.25-2.78 137.28-2.16L137.28-2.16L137.28-2.16Q136.31-1.53 135.13-1.53L135.13-1.53L135.13-1.53Q134-1.53 133.16-1.97L133.16-1.97L133.16-1.97Q132.31-2.41 131.73-3.16L131.73-3.16L131.73-3.16Q131.16-3.91 130.86-4.95L130.86-4.95L130.86-4.95Q130.56-6 130.56-7.22ZM150.34-16.25L150.34-16.25L150.34-16.25Q150.34-18.13 151.23-19.50L151.23-19.50L151.23-19.50Q152.13-20.88 153.53-22.16L153.53-22.16L153.53-22.16Q153.09-22.44 152.59-22.58L152.59-22.58L152.59-22.58Q152.09-22.72 151.63-22.72L151.63-22.72L151.63-22.72Q150.59-22.72 149.42-22.20L149.42-22.20L149.42-22.20Q148.25-21.69 147.27-20.47L147.27-20.47L147.27-20.47Q146.28-19.25 145.63-17.20L145.63-17.20L145.63-17.20Q144.97-15.16 144.97-12.09L144.97-12.09L144.97-12.09Q144.97-9.56 145.58-7.75L145.58-7.75L145.58-7.75Q146.19-5.94 147.25-4.77L147.25-4.77L147.25-4.77Q148.31-3.59 149.72-3.05L149.72-3.05L149.72-3.05Q151.13-2.50 152.72-2.50L152.72-2.50L152.72-2.50Q154.63-2.50 156.13-3.48L156.13-3.48L156.13-3.48Q157.63-4.47 158.88-6.20L158.88-6.20L158.88-6.20Q160.13-7.94 161.20-10.27L161.20-10.27L161.20-10.27Q162.28-12.59 163.34-15.28L163.34-15.28L164.53-14.97L164.53-14.97Q163.91-13.44 163.23-11.81L163.23-11.81L163.23-11.81Q162.56-10.19 161.77-8.61L161.77-8.61L161.77-8.61Q160.97-7.03 160.02-5.63L160.02-5.63L160.02-5.63Q159.06-4.22 157.83-3.16L157.83-3.16L157.83-3.16Q156.59-2.09 155.06-1.47L155.06-1.47L155.06-1.47Q153.53-0.84 151.63-0.84L151.63-0.84L151.63-0.84Q149.69-0.84 147.95-1.48L147.95-1.48L147.95-1.48Q146.22-2.13 144.91-3.42L144.91-3.42L144.91-3.42Q143.59-4.72 142.81-6.69L142.81-6.69L142.81-6.69Q142.03-8.66 142.03-11.31L142.03-11.31L142.03-11.31Q142.03-14 142.92-16.31L142.92-16.31L142.92-16.31Q143.81-18.63 145.19-20.31L145.19-20.31L145.19-20.31Q146.56-22 148.22-22.97L148.22-22.97L148.22-22.97Q149.88-23.94 151.38-23.94L151.38-23.94L151.38-23.94Q153.13-23.94 154.50-23.03L154.50-23.03L154.50-23.03Q154.75-23.22 154.98-23.42L154.98-23.42L154.98-23.42Q155.22-23.63 155.47-23.88L155.47-23.88L156.16-22.91L156.16-22.91Q155.97-22.72 155.78-22.56L155.78-22.56L155.78-22.56Q155.59-22.41 155.41-22.22L155.41-22.22L155.41-22.22Q155.97-21.53 156.33-20.59L156.33-20.59L156.33-20.59Q156.69-19.66 156.69-18.50L156.69-18.50L156.69-18.50Q156.69-17.22 156.39-16.23L156.39-16.23L156.39-16.23Q156.09-15.25 155.58-14.56L155.58-14.56L155.58-14.56Q155.06-13.88 154.41-13.53L154.41-13.53L154.41-13.53Q153.75-13.19 153.03-13.19L153.03-13.19L153.03-13.19Q152.66-13.19 152.19-13.36L152.19-13.36L152.19-13.36Q151.72-13.53 151.31-13.89L151.31-13.89L151.31-13.89Q150.91-14.25 150.63-14.83L150.63-14.83L150.63-14.83Q150.34-15.41 150.34-16.25ZM155.41-18.50L155.41-18.50L155.41-18.50Q155.41-19.41 155.14-20.13L155.14-20.13L155.14-20.13Q154.88-20.84 154.44-21.38L154.44-21.38L154.44-21.38Q153.28-20.38 152.45-19.14L152.45-19.14L152.45-19.14Q151.63-17.91 151.63-16.25L151.63-16.25L151.63-16.25Q151.63-15.38 152.06-14.89L152.06-14.89L152.06-14.89Q152.50-14.41 153.09-14.41L153.09-14.41L153.09-14.41Q153.78-14.41 154.23-14.84L154.23-14.84L154.23-14.84Q154.69-15.28 154.94-15.92L154.94-15.92L154.94-15.92Q155.19-16.56 155.30-17.27L155.30-17.27L155.30-17.27Q155.41-17.97 155.41-18.50ZM186.16-15.28L187.38-14.97L187.38-14.97Q186.09-11.50 185.05-9.16L185.05-9.16L185.05-9.16Q184-6.81 183.02-5.38L183.02-5.38L183.02-5.38Q182.03-3.94 181.06-3.31L181.06-3.31L181.06-3.31Q180.09-2.69 178.94-2.69L178.94-2.69L178.94-2.69Q177.53-2.69 176.53-3.67L176.53-3.67L176.53-3.67Q175.53-4.66 175.28-6.72L175.28-6.72L175.28-6.72Q174.28-4.56 172.69-3.20L172.69-3.20L172.69-3.20Q171.09-1.84 168.69-1.84L168.69-1.84L168.69-1.84Q167.41-1.84 166.23-2.31L166.23-2.31L166.23-2.31Q165.06-2.78 164.16-3.77L164.16-3.77L164.16-3.77Q163.25-4.75 162.70-6.25L162.70-6.25L162.70-6.25Q162.16-7.75 162.16-9.78L162.16-9.78L162.16-9.78Q162.16-11.84 162.67-13.66L162.67-13.66L162.67-13.66Q163.19-15.47 164.03-16.98L164.03-16.98L164.03-16.98Q164.88-18.50 165.98-19.69L165.98-19.69L165.98-19.69Q167.09-20.88 168.28-21.69L168.28-21.69L168.28-21.69Q169.47-22.50 170.66-22.94L170.66-22.94L170.66-22.94Q171.84-23.38 172.84-23.38L172.84-23.38L172.84-23.38Q173.72-23.38 174.53-23.16L174.53-23.16L174.53-23.16Q175.34-22.94 175.98-22.45L175.98-22.45L175.98-22.45Q176.63-21.97 177.02-21.16L177.02-21.16L177.02-21.16Q177.41-20.34 177.41-19.13L177.41-19.13L177.41-19.13Q177.41-17.69 176.86-16.63L176.86-16.63L176.86-16.63Q176.31-15.56 175.55-14.84L175.55-14.84L175.55-14.84Q174.78-14.13 173.98-13.69L173.98-13.69L173.98-13.69Q173.19-13.25 172.72-13.06L172.72-13.06L172.34-14.28L172.34-14.28Q172.44-14.28 173.05-14.53L173.05-14.53L173.05-14.53Q173.66-14.78 174.33-15.36L174.33-15.36L174.33-15.36Q175-15.94 175.56-16.84L175.56-16.84L175.56-16.84Q176.13-17.75 176.13-19.06L176.13-19.06L176.13-19.06Q176.13-20.56 175.28-21.36L175.28-21.36L175.28-21.36Q174.44-22.16 173.13-22.16L173.13-22.16L173.13-22.16Q172.13-22.16 170.78-21.44L170.78-21.44L170.78-21.44Q169.44-20.72 168.20-19.19L168.20-19.19L168.20-19.19Q166.97-17.66 166.11-15.31L166.11-15.31L166.11-15.31Q165.25-12.97 165.25-9.72L165.25-9.72L165.25-9.72Q165.25-6.50 166.39-4.81L166.39-4.81L166.39-4.81Q167.53-3.13 169.47-3.13L169.47-3.13L169.47-3.13Q170.44-3.13 171.33-3.67L171.33-3.67L171.33-3.67Q172.22-4.22 172.97-5.13L172.97-5.13L172.97-5.13Q173.72-6.03 174.31-7.23L174.31-7.23L174.31-7.23Q174.91-8.44 175.34-9.72L175.34-9.72L175.34-9.72Q175.34-10.72 175.58-12.08L175.58-12.08L175.58-12.08Q175.81-13.44 176.31-14.84L176.31-14.84L178.22-14.22L178.22-14.22Q178.06-13.81 177.91-13.16L177.91-13.16L177.91-13.16Q177.75-12.50 177.61-11.72L177.61-11.72L177.61-11.72Q177.47-10.94 177.38-10.11L177.38-10.11L177.38-10.11Q177.28-9.28 177.28-8.50L177.28-8.50L177.28-8.50Q177.28-6.06 177.77-5.14L177.77-5.14L177.77-5.14Q178.25-4.22 179.44-4.22L179.44-4.22L179.44-4.22Q180.13-4.22 180.80-4.72L180.80-4.72L180.80-4.72Q181.47-5.22 182.25-6.47L182.25-6.47L182.25-6.47Q183.03-7.72 183.97-9.86L183.97-9.86L183.97-9.86Q184.91-12 186.16-15.28L186.16-15.28ZM242.69-10.19L243.84-9.78L243.84-9.78Q243.47-8.66 242.64-7.28L242.64-7.28L242.64-7.28Q241.81-5.91 240.39-4.69L240.39-4.69L240.39-4.69Q238.97-3.47 236.86-2.66L236.86-2.66L236.86-2.66Q234.75-1.84 231.81-1.84L231.81-1.84L231.81-1.84Q229.66-1.84 227.73-2.41L227.73-2.41L227.73-2.41Q225.81-2.97 224.13-3.97L224.13-3.97L224.13-3.97Q221.41-2.38 218.39-1.38L218.39-1.38L218.39-1.38Q215.38-0.38 212.09-0.38L212.09-0.38L212.09-0.38Q208.97-0.38 206.72-1.23L206.72-1.23L206.72-1.23Q204.47-2.09 203.02-3.50L203.02-3.50L203.02-3.50Q201.56-4.91 200.88-6.69L200.88-6.69L200.88-6.69Q200.19-8.47 200.19-10.31L200.19-10.31L200.19-10.31Q200.19-13.13 201.28-15.25L201.28-15.25L201.28-15.25Q202.38-17.38 204.16-18.98L204.16-18.98L204.16-18.98Q205.94-20.59 208.23-21.83L208.23-21.83L208.23-21.83Q210.53-23.06 212.94-24.13L212.94-24.13L212.94-24.13Q212.69-25.59 212.58-27.03L212.58-27.03L212.58-27.03Q212.47-28.47 212.47-29.88L212.47-29.88L212.47-29.88Q212.47-32.72 213.22-34.97L213.22-34.97L213.22-34.97Q213.97-37.22 215.30-38.78L215.30-38.78L215.30-38.78Q216.63-40.34 218.45-41.16L218.45-41.16L218.45-41.16Q220.28-41.97 222.41-41.97L222.41-41.97L222.41-41.97Q223.81-41.97 224.86-41.48L224.86-41.48L224.86-41.48Q225.91-41 226.59-40.22L226.59-40.22L226.59-40.22Q227.28-39.44 227.63-38.48L227.63-38.48L227.63-38.48Q227.97-37.53 227.97-36.59L227.97-36.59L227.97-36.59Q227.97-34.09 226.94-32.19L226.94-32.19L226.94-32.19Q225.91-30.28 224.23-28.80L224.23-28.80L224.23-28.80Q222.56-27.31 220.44-26.16L220.44-26.16L220.44-26.16Q218.31-25 216.13-24L216.13-24L216.13-24Q216.63-21.31 217.47-18.72L217.47-18.72L217.47-18.72Q218.31-16.13 219.48-13.81L219.48-13.81L219.48-13.81Q220.66-11.50 222.14-9.55L222.14-9.55L222.14-9.55Q223.63-7.59 225.47-6.22L225.47-6.22L225.47-6.22Q227.47-7.66 229.13-9.38L229.13-9.38L229.13-9.38Q230.78-11.09 231.97-12.86L231.97-12.86L231.97-12.86Q233.16-14.63 233.80-16.28L233.80-16.28L233.80-16.28Q234.44-17.94 234.44-19.25L234.44-19.25L234.44-19.25Q234.44-20.22 234.22-20.88L234.22-20.88L234.22-20.88Q234-21.53 233.63-21.94L233.63-21.94L233.63-21.94Q233.25-22.34 232.75-22.53L232.75-22.53L232.75-22.53Q232.25-22.72 231.69-22.72L231.69-22.72L231.69-22.72Q231.22-22.72 230.72-22.53L230.72-22.53L230.72-22.53Q230.22-22.34 229.83-21.98L229.83-21.98L229.83-21.98Q229.44-21.63 229.19-21.08L229.19-21.08L229.19-21.08Q228.94-20.53 228.94-19.78L228.94-19.78L228.94-19.78Q228.94-19.19 229.27-18.48L229.27-18.48L229.27-18.48Q229.59-17.78 230.47-17.41L230.47-17.41L229.94-16.38L229.94-16.38Q229.31-16.66 228.91-17.05L228.91-17.05L228.91-17.05Q228.50-17.44 228.25-17.91L228.25-17.91L228.25-17.91Q228-18.38 227.89-18.86L227.89-18.86L227.89-18.86Q227.78-19.34 227.78-19.78L227.78-19.78L227.78-19.78Q227.78-20.81 228.20-21.58L228.20-21.58L228.20-21.58Q228.63-22.34 229.27-22.86L229.27-22.86L229.27-22.86Q229.91-23.38 230.66-23.63L230.66-23.63L230.66-23.63Q231.41-23.88 232.06-23.88L232.06-23.88L232.06-23.88Q233.94-23.88 235.08-22.72L235.08-22.72L235.08-22.72Q236.22-21.56 236.22-19.41L236.22-19.41L236.22-19.41Q236.22-18.03 235.52-16.28L235.52-16.28L235.52-16.28Q234.81-14.53 233.53-12.66L233.53-12.66L233.53-12.66Q232.25-10.78 230.44-8.91L230.44-8.91L230.44-8.91Q228.63-7.03 226.44-5.44L226.44-5.44L226.44-5.44Q228.03-4.44 229.80-3.88L229.80-3.88L229.80-3.88Q231.56-3.31 233.59-3.31L233.59-3.31L233.59-3.31Q235.59-3.31 237.14-4L237.14-4L237.14-4Q238.69-4.69 239.81-5.72L239.81-5.72L239.81-5.72Q240.94-6.75 241.66-7.95L241.66-7.95L241.66-7.95Q242.38-9.16 242.69-10.19L242.69-10.19ZM213.69-2.19L213.69-2.19L213.69-2.19Q216.22-2.19 218.56-2.84L218.56-2.84L218.56-2.84Q220.91-3.50 223.03-4.69L223.03-4.69L223.03-4.69Q221.06-6.13 219.47-8.11L219.47-8.11L219.47-8.11Q217.88-10.09 216.64-12.44L216.64-12.44L216.64-12.44Q215.41-14.78 214.55-17.39L214.55-17.39L214.55-17.39Q213.69-20 213.19-22.66L213.19-22.66L213.19-22.66Q211.06-21.63 209.33-20.48L209.33-20.48L209.33-20.48Q207.59-19.34 206.38-17.95L206.38-17.95L206.38-17.95Q205.16-16.56 204.50-14.84L204.50-14.84L204.50-14.84Q203.84-13.13 203.84-10.94L203.84-10.94L203.84-10.94Q203.84-8.63 204.73-6.98L204.73-6.98L204.73-6.98Q205.63-5.34 207.03-4.27L207.03-4.27L207.03-4.27Q208.44-3.19 210.19-2.69L210.19-2.69L210.19-2.69Q211.94-2.19 213.69-2.19ZM215.38-31.94L215.38-31.94L215.38-31.94Q215.38-30.34 215.48-28.70L215.48-28.70L215.48-28.70Q215.59-27.06 215.88-25.41L215.88-25.41L215.88-25.41Q217.97-26.34 219.94-27.39L219.94-27.39L219.94-27.39Q221.91-28.44 223.44-29.73L223.44-29.73L223.44-29.73Q224.97-31.03 225.89-32.64L225.89-32.64L225.89-32.64Q226.81-34.25 226.81-36.28L226.81-36.28L226.81-36.28Q226.81-37.13 226.55-37.94L226.55-37.94L226.55-37.94Q226.28-38.75 225.73-39.41L225.73-39.41L225.73-39.41Q225.19-40.06 224.36-40.45L224.36-40.45L224.36-40.45Q223.53-40.84 222.41-40.84L222.41-40.84L222.41-40.84Q220.91-40.84 219.61-40.16L219.61-40.16L219.61-40.16Q218.31-39.47 217.38-38.27L217.38-38.27L217.38-38.27Q216.44-37.06 215.91-35.44L215.91-35.44L215.91-35.44Q215.38-33.81 215.38-31.94ZM261.56-11.72L261.56-12.94L269.19-12.94L269.19-12.94Q270.84-16.31 272.47-19.63L272.47-19.63L272.47-19.63Q274.09-22.94 275.61-25.97L275.61-25.97L275.61-25.97Q277.13-29 278.47-31.66L278.47-31.66L278.47-31.66Q279.81-34.31 280.86-36.38L280.86-36.38L280.86-36.38Q281.91-38.44 282.64-39.81L282.64-39.81L282.64-39.81Q283.38-41.19 283.66-41.66L283.66-41.66L283.66-41.66Q284.03-42.34 284.45-42.61L284.45-42.61L284.45-42.61Q284.88-42.88 285.50-42.88L285.50-42.88L285.50-42.88Q286.22-42.88 286.66-42.42L286.66-42.42L286.66-42.42Q287.09-41.97 287.09-41.09L287.09-41.09L287.09-41.09Q287.09-40.75 287.03-39.44L287.03-39.44L287.03-39.44Q286.97-38.13 286.88-36.16L286.88-36.16L286.88-36.16Q286.78-34.19 286.66-31.75L286.66-31.75L286.66-31.75Q286.53-29.31 286.44-26.73L286.44-26.73L286.44-26.73Q286.34-24.16 286.28-21.61L286.28-21.61L286.28-21.61Q286.22-19.06 286.22-16.91L286.22-16.91L286.22-16.91Q286.22-15.91 286.22-14.91L286.22-14.91L286.22-14.91Q286.22-13.91 286.28-13L286.28-13L286.28-13Q288.25-13 289.98-13L289.98-13L289.98-13Q291.72-13 292.81-13.06L292.81-13.06L292.81-11.84L292.81-11.84Q291.13-11.78 289.53-11.78L289.53-11.78L289.53-11.78Q287.94-11.78 286.34-11.78L286.34-11.78L286.34-11.78Q286.56-7.72 287.27-4.41L287.27-4.41L287.27-4.41Q287.97-1.09 289.42 1.27L289.42 1.27L289.42 1.27Q290.88 3.63 293.19 4.92L293.19 4.92L293.19 4.92Q295.50 6.22 298.94 6.22L298.94 6.22L298.94 6.22Q300.31 6.22 301.88 5.88L301.88 5.88L302.09 7.16L302.09 7.16Q300.50 7.66 299.20 7.89L299.20 7.89L299.20 7.89Q297.91 8.13 296.72 8.13L296.72 8.13L296.72 8.13Q293.84 8.13 291.73 7.41L291.73 7.41L291.73 7.41Q289.63 6.69 288.14 5.38L288.14 5.38L288.14 5.38Q286.66 4.06 285.72 2.23L285.72 2.23L285.72 2.23Q284.78 0.41 284.25-1.80L284.25-1.80L284.25-1.80Q283.72-4 283.50-6.52L283.50-6.52L283.50-6.52Q283.28-9.03 283.28-11.72L283.28-11.72L270.53-11.72L270.53-11.72Q270.34-11.28 270.16-10.89L270.16-10.89L270.16-10.89Q269.97-10.50 269.75-10.06L269.75-10.06L269.75-10.06Q268.19-6.63 266.75-4.11L266.75-4.11L266.75-4.11Q265.31-1.59 263.98 0.19L263.98 0.19L263.98 0.19Q262.66 1.97 261.47 3.13L261.47 3.13L261.47 3.13Q260.28 4.28 259.19 5.02L259.19 5.02L259.19 5.02Q258.09 5.75 257.11 6.17L257.11 6.17L257.11 6.17Q256.13 6.59 255.25 6.91L255.25 6.91L254.72 5.81L254.72 5.81Q254.72 5.81 255.31 5.42L255.31 5.42L255.31 5.42Q255.91 5.03 256.91 4.19L256.91 4.19L256.91 4.19Q257.91 3.34 259.25 1.97L259.25 1.97L259.25 1.97Q260.59 0.59 262.13-1.34L262.13-1.34L262.13-1.34Q263.66-3.28 265.33-5.86L265.33-5.86L265.33-5.86Q267-8.44 268.63-11.72L268.63-11.72L261.56-11.72ZM285.31-41.53L285.31-41.53L285.31-41.53Q284.97-41.53 283.78-39.42L283.78-39.42L283.78-39.42Q282.59-37.31 280.73-33.53L280.73-33.53L280.73-33.53Q278.88-29.75 276.41-24.50L276.41-24.50L276.41-24.50Q273.94-19.25 271.03-12.94L271.03-12.94L283.28-12.94L283.28-12.94Q283.28-15.78 283.47-18.67L283.47-18.67L283.47-18.67Q283.66-21.56 283.92-24.33L283.92-24.33L283.92-24.33Q284.19-27.09 284.48-29.64L284.48-29.64L284.48-29.64Q284.78-32.19 285.03-34.33L285.03-34.33L285.03-34.33Q285.28-36.47 285.45-38.13L285.45-38.13L285.45-38.13Q285.63-39.78 285.63-40.78L285.63-40.78L285.63-40.78Q285.63-41.25 285.55-41.39L285.55-41.39L285.55-41.39Q285.47-41.53 285.31-41.53ZM299.19-14.97L297.97-15.28L297.97-15.28Q298.44-16.50 298.98-17.61L298.98-17.61L298.98-17.61Q299.53-18.72 300.16-19.56L300.16-19.56L300.16-19.56Q300.78-20.41 301.52-20.92L301.52-20.92L301.52-20.92Q302.25-21.44 303.16-21.44L303.16-21.44L303.16-21.44Q303.59-21.44 304.16-21.25L304.16-21.25L304.16-21.25Q304.72-21.06 305.23-20.50L305.23-20.50L305.23-20.50Q305.75-19.94 306.09-18.88L306.09-18.88L306.09-18.88Q306.44-17.81 306.44-16.06L306.44-16.06L306.44-16.06Q306.44-15.16 306.34-14.06L306.34-14.06L306.34-14.06Q306.25-12.97 306.16-11.91L306.16-11.91L306.16-11.91Q307.13-13.97 308.08-15.39L308.08-15.39L308.08-15.39Q309.03-16.81 309.95-17.67L309.95-17.67L309.95-17.67Q310.88-18.53 311.78-18.92L311.78-18.92L311.78-18.92Q312.69-19.31 313.59-19.31L313.59-19.31L313.59-19.31Q314-19.31 314.55-19.13L314.55-19.13L314.55-19.13Q315.09-18.94 315.58-18.47L315.58-18.47L315.58-18.47Q316.06-18 316.39-17.19L316.39-17.19L316.39-17.19Q316.72-16.38 316.72-15.09L316.72-15.09L316.72-15.09Q316.72-14.06 316.56-13.03L316.56-13.03L316.56-13.03Q316.41-12 316.22-11.03L316.22-11.03L316.22-11.03Q316.03-10.06 315.88-9.20L315.88-9.20L315.88-9.20Q315.72-8.34 315.72-7.69L315.72-7.69L315.72-7.69Q315.72-6.13 316.28-5.30L316.28-5.30L316.28-5.30Q316.84-4.47 318-4.47L318-4.47L318-4.47Q318.94-4.47 319.78-5.17L319.78-5.17L319.78-5.17Q320.63-5.88 321.36-6.97L321.36-6.97L321.36-6.97Q322.09-8.06 322.70-9.38L322.70-9.38L322.70-9.38Q323.31-10.69 323.77-11.89L323.77-11.89L323.77-11.89Q324.22-13.09 324.53-14.02L324.53-14.02L324.53-14.02Q324.84-14.94 324.97-15.28L324.97-15.28L326.19-14.97L326.19-14.97Q325.75-13.88 325.27-12.55L325.27-12.55L325.27-12.55Q324.78-11.22 324.19-9.88L324.19-9.88L324.19-9.88Q323.59-8.53 322.91-7.27L322.91-7.27L322.91-7.27Q322.22-6 321.38-5.03L321.38-5.03L321.38-5.03Q320.53-4.06 319.55-3.47L319.55-3.47L319.55-3.47Q318.56-2.88 317.38-2.88L317.38-2.88L317.38-2.88Q316.38-2.88 315.64-3.27L315.64-3.27L315.64-3.27Q314.91-3.66 314.41-4.31L314.41-4.31L314.41-4.31Q313.91-4.97 313.66-5.88L313.66-5.88L313.66-5.88Q313.41-6.78 313.41-7.81L313.41-7.81L313.41-7.81Q313.41-8.97 313.61-10.19L313.61-10.19L313.61-10.19Q313.81-11.41 314.05-12.53L314.05-12.53L314.05-12.53Q314.28-13.66 314.48-14.61L314.48-14.61L314.48-14.61Q314.69-15.56 314.69-16.19L314.69-16.19L314.69-16.19Q314.69-17.16 314.31-17.64L314.31-17.64L314.31-17.64Q313.94-18.13 313.28-18.13L313.28-18.13L313.28-18.13Q312.38-18.13 311.52-17.47L311.52-17.47L311.52-17.47Q310.66-16.81 309.86-15.72L309.86-15.72L309.86-15.72Q309.06-14.63 308.34-13.22L308.34-13.22L308.34-13.22Q307.63-11.81 307.02-10.33L307.02-10.33L307.02-10.33Q306.41-8.84 305.89-7.38L305.89-7.38L305.89-7.38Q305.38-5.91 305-4.72L305-4.72L305-4.72Q304.63-3.53 304.36-2.70L304.36-2.70L304.36-2.70Q304.09-1.88 304-1.66L304-1.66L302.19-1.97L302.19-1.97Q302.56-3.81 302.88-5.86L302.88-5.86L302.88-5.86Q303.19-7.91 303.42-9.89L303.42-9.89L303.42-9.89Q303.66-11.88 303.80-13.69L303.80-13.69L303.80-13.69Q303.94-15.50 303.94-16.91L303.94-16.91L303.94-16.91Q303.94-18.81 303.69-19.48L303.69-19.48L303.69-19.48Q303.44-20.16 302.78-20.16L302.78-20.16L302.78-20.16Q302.22-20.16 301.72-19.73L301.72-19.73L301.72-19.73Q301.22-19.31 300.80-18.61L300.80-18.61L300.80-18.61Q300.38-17.91 299.97-16.97L299.97-16.97L299.97-16.97Q299.56-16.03 299.19-14.97L299.19-14.97ZM326.19-14.97L324.97-15.28L324.97-15.28Q325.44-16.50 325.98-17.61L325.98-17.61L325.98-17.61Q326.53-18.72 327.16-19.56L327.16-19.56L327.16-19.56Q327.78-20.41 328.52-20.92L328.52-20.92L328.52-20.92Q329.25-21.44 330.16-21.44L330.16-21.44L330.16-21.44Q330.59-21.44 331.16-21.25L331.16-21.25L331.16-21.25Q331.72-21.06 332.23-20.50L332.23-20.50L332.23-20.50Q332.75-19.94 333.09-18.88L333.09-18.88L333.09-18.88Q333.44-17.81 333.44-16.06L333.44-16.06L333.44-16.06Q333.44-15.16 333.34-14.06L333.34-14.06L333.34-14.06Q333.25-12.97 333.16-11.91L333.16-11.91L333.16-11.91Q334.13-13.97 335.08-15.39L335.08-15.39L335.08-15.39Q336.03-16.81 336.95-17.67L336.95-17.67L336.95-17.67Q337.88-18.53 338.78-18.92L338.78-18.92L338.78-18.92Q339.69-19.31 340.59-19.31L340.59-19.31L340.59-19.31Q341-19.31 341.55-19.13L341.55-19.13L341.55-19.13Q342.09-18.94 342.58-18.47L342.58-18.47L342.58-18.47Q343.06-18 343.39-17.19L343.39-17.19L343.39-17.19Q343.72-16.38 343.72-15.09L343.72-15.09L343.72-15.09Q343.72-14.06 343.56-13.03L343.56-13.03L343.56-13.03Q343.41-12 343.22-11.03L343.22-11.03L343.22-11.03Q343.03-10.06 342.88-9.20L342.88-9.20L342.88-9.20Q342.72-8.34 342.72-7.69L342.72-7.69L342.72-7.69Q342.72-6.13 343.28-5.30L343.28-5.30L343.28-5.30Q343.84-4.47 345-4.47L345-4.47L345-4.47Q345.94-4.47 346.78-5.17L346.78-5.17L346.78-5.17Q347.63-5.88 348.36-6.97L348.36-6.97L348.36-6.97Q349.09-8.06 349.70-9.38L349.70-9.38L349.70-9.38Q350.31-10.69 350.77-11.89L350.77-11.89L350.77-11.89Q351.22-13.09 351.53-14.02L351.53-14.02L351.53-14.02Q351.84-14.94 351.97-15.28L351.97-15.28L353.19-14.97L353.19-14.97Q352.75-13.88 352.27-12.55L352.27-12.55L352.27-12.55Q351.78-11.22 351.19-9.88L351.19-9.88L351.19-9.88Q350.59-8.53 349.91-7.27L349.91-7.27L349.91-7.27Q349.22-6 348.38-5.03L348.38-5.03L348.38-5.03Q347.53-4.06 346.55-3.47L346.55-3.47L346.55-3.47Q345.56-2.88 344.38-2.88L344.38-2.88L344.38-2.88Q343.38-2.88 342.64-3.27L342.64-3.27L342.64-3.27Q341.91-3.66 341.41-4.31L341.41-4.31L341.41-4.31Q340.91-4.97 340.66-5.88L340.66-5.88L340.66-5.88Q340.41-6.78 340.41-7.81L340.41-7.81L340.41-7.81Q340.41-8.97 340.61-10.19L340.61-10.19L340.61-10.19Q340.81-11.41 341.05-12.53L341.05-12.53L341.05-12.53Q341.28-13.66 341.48-14.61L341.48-14.61L341.48-14.61Q341.69-15.56 341.69-16.19L341.69-16.19L341.69-16.19Q341.69-17.16 341.31-17.64L341.31-17.64L341.31-17.64Q340.94-18.13 340.28-18.13L340.28-18.13L340.28-18.13Q339.38-18.13 338.52-17.47L338.52-17.47L338.52-17.47Q337.66-16.81 336.86-15.72L336.86-15.72L336.86-15.72Q336.06-14.63 335.34-13.22L335.34-13.22L335.34-13.22Q334.63-11.81 334.02-10.33L334.02-10.33L334.02-10.33Q333.41-8.84 332.89-7.38L332.89-7.38L332.89-7.38Q332.38-5.91 332-4.72L332-4.72L332-4.72Q331.63-3.53 331.36-2.70L331.36-2.70L331.36-2.70Q331.09-1.88 331-1.66L331-1.66L329.19-1.97L329.19-1.97Q329.56-3.81 329.88-5.86L329.88-5.86L329.88-5.86Q330.19-7.91 330.42-9.89L330.42-9.89L330.42-9.89Q330.66-11.88 330.80-13.69L330.80-13.69L330.80-13.69Q330.94-15.50 330.94-16.91L330.94-16.91L330.94-16.91Q330.94-18.81 330.69-19.48L330.69-19.48L330.69-19.48Q330.44-20.16 329.78-20.16L329.78-20.16L329.78-20.16Q329.22-20.16 328.72-19.73L328.72-19.73L328.72-19.73Q328.22-19.31 327.80-18.61L327.80-18.61L327.80-18.61Q327.38-17.91 326.97-16.97L326.97-16.97L326.97-16.97Q326.56-16.03 326.19-14.97L326.19-14.97ZM374.81-15.28L376.03-14.97L376.03-14.97Q374.75-11.50 373.70-9.16L373.70-9.16L373.70-9.16Q372.66-6.81 371.67-5.38L371.67-5.38L371.67-5.38Q370.69-3.94 369.72-3.31L369.72-3.31L369.72-3.31Q368.75-2.69 367.59-2.69L367.59-2.69L367.59-2.69Q366.19-2.69 365.19-3.67L365.19-3.67L365.19-3.67Q364.19-4.66 363.94-6.72L363.94-6.72L363.94-6.72Q362.94-4.56 361.34-3.20L361.34-3.20L361.34-3.20Q359.75-1.84 357.34-1.84L357.34-1.84L357.34-1.84Q356.06-1.84 354.89-2.31L354.89-2.31L354.89-2.31Q353.72-2.78 352.81-3.77L352.81-3.77L352.81-3.77Q351.91-4.75 351.36-6.25L351.36-6.25L351.36-6.25Q350.81-7.75 350.81-9.78L350.81-9.78L350.81-9.78Q350.81-11.84 351.33-13.66L351.33-13.66L351.33-13.66Q351.84-15.47 352.69-16.98L352.69-16.98L352.69-16.98Q353.53-18.50 354.64-19.69L354.64-19.69L354.64-19.69Q355.75-20.88 356.94-21.69L356.94-21.69L356.94-21.69Q358.13-22.50 359.31-22.94L359.31-22.94L359.31-22.94Q360.50-23.38 361.50-23.38L361.50-23.38L361.50-23.38Q362.38-23.38 363.19-23.16L363.19-23.16L363.19-23.16Q364-22.94 364.64-22.45L364.64-22.45L364.64-22.45Q365.28-21.97 365.67-21.16L365.67-21.16L365.67-21.16Q366.06-20.34 366.06-19.13L366.06-19.13L366.06-19.13Q366.06-17.69 365.52-16.63L365.52-16.63L365.52-16.63Q364.97-15.56 364.20-14.84L364.20-14.84L364.20-14.84Q363.44-14.13 362.64-13.69L362.64-13.69L362.64-13.69Q361.84-13.25 361.38-13.06L361.38-13.06L361-14.28L361-14.28Q361.09-14.28 361.70-14.53L361.70-14.53L361.70-14.53Q362.31-14.78 362.98-15.36L362.98-15.36L362.98-15.36Q363.66-15.94 364.22-16.84L364.22-16.84L364.22-16.84Q364.78-17.75 364.78-19.06L364.78-19.06L364.78-19.06Q364.78-20.56 363.94-21.36L363.94-21.36L363.94-21.36Q363.09-22.16 361.78-22.16L361.78-22.16L361.78-22.16Q360.78-22.16 359.44-21.44L359.44-21.44L359.44-21.44Q358.09-20.72 356.86-19.19L356.86-19.19L356.86-19.19Q355.63-17.66 354.77-15.31L354.77-15.31L354.77-15.31Q353.91-12.97 353.91-9.72L353.91-9.72L353.91-9.72Q353.91-6.50 355.05-4.81L355.05-4.81L355.05-4.81Q356.19-3.13 358.13-3.13L358.13-3.13L358.13-3.13Q359.09-3.13 359.98-3.67L359.98-3.67L359.98-3.67Q360.88-4.22 361.63-5.13L361.63-5.13L361.63-5.13Q362.38-6.03 362.97-7.23L362.97-7.23L362.97-7.23Q363.56-8.44 364-9.72L364-9.72L364-9.72Q364-10.72 364.23-12.08L364.23-12.08L364.23-12.08Q364.47-13.44 364.97-14.84L364.97-14.84L366.88-14.22L366.88-14.22Q366.72-13.81 366.56-13.16L366.56-13.16L366.56-13.16Q366.41-12.50 366.27-11.72L366.27-11.72L366.27-11.72Q366.13-10.94 366.03-10.11L366.03-10.11L366.03-10.11Q365.94-9.28 365.94-8.50L365.94-8.50L365.94-8.50Q365.94-6.06 366.42-5.14L366.42-5.14L366.42-5.14Q366.91-4.22 368.09-4.22L368.09-4.22L368.09-4.22Q368.78-4.22 369.45-4.72L369.45-4.72L369.45-4.72Q370.13-5.22 370.91-6.47L370.91-6.47L370.91-6.47Q371.69-7.72 372.63-9.86L372.63-9.86L372.63-9.86Q373.56-12 374.81-15.28L374.81-15.28Z" fill="#ffffff"></path></g></g><style>text {
  font-size: 64px;
  font-family: Arial Black;
  dominant-baseline: central;
  text-anchor: middle;
}</style></svg>